<?xml version="1.0" encoding="utf-8"?>
<!-- Generator: Adobe Illustrator 25.4.1, SVG Export Plug-In . SVG Version: 6.00 Build 0)  -->
<svg version="1.1" id="Lager_1" xmlns="http://www.w3.org/2000/svg" xmlns:xlink="http://www.w3.org/1999/xlink" x="0px" y="0px"
	 viewBox="0 0 80 80" style="enable-background:new 0 0 80 80;" xml:space="preserve">
<g>
	<path d="M77.85,34.8C77.85,34.79,77.85,34.79,77.85,34.8L45.21,2.16C43.82,0.77,41.97,0,40,0c-1.97,0-3.82,0.77-5.21,2.16
		L2.17,34.77c-0.01,0.01-0.02,0.02-0.03,0.03c-2.86,2.87-2.85,7.53,0.01,10.4c1.31,1.31,3.04,2.07,4.89,2.15
		c0.08,0.01,0.15,0.01,0.23,0.01h1.3v24.02c0,4.75,3.87,8.62,8.62,8.62h12.77c1.29,0,2.34-1.05,2.34-2.34V58.83
		c0-2.17,1.76-3.93,3.93-3.93h7.53c2.17,0,3.93,1.76,3.93,3.93v18.83c0,1.29,1.05,2.34,2.34,2.34h12.77c4.75,0,8.62-3.87,8.62-8.62
		V47.37h1.21c1.97,0,3.82-0.77,5.21-2.16C80.72,42.34,80.72,37.67,77.85,34.8z"/>
</g>
</svg>
