<?xml version="1.0" encoding="utf-8"?>
<!-- Generator: Adobe Illustrator 26.0.1, SVG Export Plug-In . SVG Version: 6.00 Build 0)  -->
<svg version="1.1" id="Lager_1" xmlns="http://www.w3.org/2000/svg" xmlns:xlink="http://www.w3.org/1999/xlink" x="0px" y="0px"
	 viewBox="0 0 512 384" style="enable-background:new 0 0 512 384;" xml:space="preserve">
<style type="text/css">
	.st0{fill:#010202;}
</style>
<g>
	<g>
		<g id="grip-solid-horizontal_1_">
			<path class="st0" d="M480.2,384.33h-448c-17.67,0-32-14.33-32-32s14.33-32,32-32h448c17.67,0,32,14.33,32,32
				C512.2,370,497.88,384.33,480.2,384.33z"/>
			<path class="st0" d="M480.2,224.33h-448c-17.67,0-32-14.33-32-32s14.33-32,32-32h448c17.67,0,32,14.33,32,32
				S497.88,224.33,480.2,224.33z"/>
			<path class="st0" d="M480.2,64.33h-448c-17.67,0-32-14.33-32-32s14.33-32,32-32h448c17.67,0,32,14.33,32,32
				S497.88,64.33,480.2,64.33z"/>
		</g>
	</g>
</g>
</svg>
