<?xml version="1.0" encoding="utf-8"?>
<!-- Generator: Adobe Illustrator 26.0.1, SVG Export Plug-In . SVG Version: 6.00 Build 0)  -->
<svg version="1.1" id="Lager_1" xmlns="http://www.w3.org/2000/svg" xmlns:xlink="http://www.w3.org/1999/xlink" x="0px" y="0px"
	 viewBox="0 0 512 506" style="enable-background:new 0 0 512 506;" xml:space="preserve">
<style type="text/css">
	.st0{fill:#010202;}
</style>
<g>
	<g>
		<g id="close_1_">
			<path class="st0" d="M48.54,505.74c-12.55,0.73-24.9-3.44-34.43-11.64c-18.8-18.91-18.8-49.45,0-68.37L425.84,14.08
				c19.56-18.3,50.25-17.28,68.55,2.27c16.55,17.68,17.51,44.86,2.26,63.67L82.48,494.1C73.07,502.18,60.92,506.34,48.54,505.74
				L48.54,505.74z"/>
			<path class="st0" d="M459.79,505.74c-12.72-0.05-24.92-5.1-33.95-14.06L14.1,80.03C-3.32,59.69-0.95,29.08,19.39,11.66
				c18.16-15.55,44.93-15.55,63.09,0l414.17,411.65c19.55,18.3,20.56,48.99,2.26,68.53c-0.73,0.78-1.48,1.53-2.26,2.26
				C486.51,502.92,473.16,507.13,459.79,505.74L459.79,505.74z"/>
		</g>
	</g>
</g>
</svg>
