<?xml version="1.0" encoding="utf-8"?>
<!-- Generator: Adobe Illustrator 25.4.1, SVG Export Plug-In . SVG Version: 6.00 Build 0)  -->
<svg version="1.1" id="Lager_1" xmlns="http://www.w3.org/2000/svg" xmlns:xlink="http://www.w3.org/1999/xlink" x="0px" y="0px"
	 viewBox="0 0 80 80" style="enable-background:new 0 0 80 80;" xml:space="preserve">
<g>
	<g>
		<path d="M72.26,3.87H7.74C3.48,3.87,0,7.35,0,11.61s3.48,7.74,7.74,7.74h64.52c4.26,0,7.74-3.48,7.74-7.74S76.52,3.87,72.26,3.87z
			"/>
		<path d="M72.26,32.26H7.74C3.48,32.26,0,35.74,0,40s3.48,7.74,7.74,7.74h64.52c4.26,0,7.74-3.48,7.74-7.74
			S76.52,32.26,72.26,32.26z"/>
		<path d="M72.26,60.65H7.74C3.48,60.65,0,64.13,0,68.39c0,4.26,3.48,7.74,7.74,7.74h64.52c4.26,0,7.74-3.48,7.74-7.74
			C80,64.13,76.52,60.65,72.26,60.65z"/>
	</g>
	<g>
	</g>
	<g>
	</g>
	<g>
	</g>
	<g>
	</g>
	<g>
	</g>
	<g>
	</g>
	<g>
	</g>
	<g>
	</g>
	<g>
	</g>
	<g>
	</g>
	<g>
	</g>
	<g>
	</g>
	<g>
	</g>
	<g>
	</g>
	<g>
	</g>
</g>
</svg>
