<?xml version="1.0" encoding="utf-8"?>
<!-- Generator: Adobe Illustrator 25.4.1, SVG Export Plug-In . SVG Version: 6.00 Build 0)  -->
<svg version="1.1" id="Lager_1" xmlns="http://www.w3.org/2000/svg" xmlns:xlink="http://www.w3.org/1999/xlink" x="0px" y="0px"
	 viewBox="0 0 80 80" style="enable-background:new 0 0 80 80;" xml:space="preserve">
<g>
	<g>
		<path d="M77.3,15.76L53.06,40L77.3,64.24c3.61,3.61,3.61,9.45,0,13.06c-1.8,1.8-4.16,2.7-6.52,2.7c-2.36,0-4.73-0.9-6.53-2.7
			L40,53.05L15.76,77.3c-1.8,1.8-4.16,2.7-6.53,2.7c-2.36,0-4.72-0.9-6.53-2.7c-3.61-3.61-3.61-9.45,0-13.06L26.94,40L2.7,15.76
			C-0.9,12.15-0.9,6.31,2.7,2.7c3.6-3.6,9.45-3.6,13.05,0L40,26.94L64.24,2.7c3.61-3.6,9.45-3.6,13.05,0
			C80.9,6.31,80.9,12.15,77.3,15.76z"/>
	</g>
	<g>
	</g>
	<g>
	</g>
	<g>
	</g>
	<g>
	</g>
	<g>
	</g>
	<g>
	</g>
	<g>
	</g>
	<g>
	</g>
	<g>
	</g>
	<g>
	</g>
	<g>
	</g>
	<g>
	</g>
	<g>
	</g>
	<g>
	</g>
	<g>
	</g>
</g>
</svg>
